<mxfile host="app.diagrams.net" modified="2023-06-28T11:54:36.661Z" agent="Mozilla/5.0 (Macintosh; Intel Mac OS X 10_15_7) AppleWebKit/537.36 (KHTML, like Gecko) Chrome/114.0.0.0 Safari/537.36" etag="k3VruhrnqpN7wpE6HT6v" version="21.5.0" type="github">
  <diagram name="Page-1" id="2YBvvXClWsGukQMizWep">
    <mxGraphModel dx="954" dy="545" grid="1" gridSize="10" guides="1" tooltips="1" connect="1" arrows="1" fold="1" page="1" pageScale="1" pageWidth="850" pageHeight="1100" math="0" shadow="0">
      <root>
        <mxCell id="0" />
        <mxCell id="1" parent="0" />
        <mxCell id="incXVMY_A2Ea36oLc7Ui-2" value="" style="whiteSpace=wrap;html=1;aspect=fixed;" vertex="1" parent="1">
          <mxGeometry x="10" y="10" width="760" height="760" as="geometry" />
        </mxCell>
        <mxCell id="incXVMY_A2Ea36oLc7Ui-6" style="edgeStyle=orthogonalEdgeStyle;rounded=0;orthogonalLoop=1;jettySize=auto;html=1;exitX=0.5;exitY=1;exitDx=0;exitDy=0;entryX=0.5;entryY=0;entryDx=0;entryDy=0;" edge="1" parent="1" source="incXVMY_A2Ea36oLc7Ui-3" target="incXVMY_A2Ea36oLc7Ui-4">
          <mxGeometry relative="1" as="geometry" />
        </mxCell>
        <mxCell id="incXVMY_A2Ea36oLc7Ui-3" value="Mongo DB Shards" style="rounded=1;whiteSpace=wrap;html=1;" vertex="1" parent="1">
          <mxGeometry x="90" y="60" width="120" height="60" as="geometry" />
        </mxCell>
        <mxCell id="incXVMY_A2Ea36oLc7Ui-7" style="edgeStyle=orthogonalEdgeStyle;rounded=0;orthogonalLoop=1;jettySize=auto;html=1;exitX=0.5;exitY=1;exitDx=0;exitDy=0;" edge="1" parent="1" source="incXVMY_A2Ea36oLc7Ui-4" target="incXVMY_A2Ea36oLc7Ui-5">
          <mxGeometry relative="1" as="geometry" />
        </mxCell>
        <mxCell id="incXVMY_A2Ea36oLc7Ui-4" value="Oplog collection" style="rounded=1;whiteSpace=wrap;html=1;" vertex="1" parent="1">
          <mxGeometry x="90" y="180" width="120" height="60" as="geometry" />
        </mxCell>
        <mxCell id="incXVMY_A2Ea36oLc7Ui-5" value="Dump the collection on application server" style="rounded=1;whiteSpace=wrap;html=1;" vertex="1" parent="1">
          <mxGeometry x="90" y="300" width="120" height="60" as="geometry" />
        </mxCell>
        <mxCell id="incXVMY_A2Ea36oLc7Ui-8" style="edgeStyle=orthogonalEdgeStyle;rounded=0;orthogonalLoop=1;jettySize=auto;html=1;exitX=0.5;exitY=1;exitDx=0;exitDy=0;entryX=0.5;entryY=0;entryDx=0;entryDy=0;" edge="1" parent="1" source="incXVMY_A2Ea36oLc7Ui-9" target="incXVMY_A2Ea36oLc7Ui-11">
          <mxGeometry relative="1" as="geometry" />
        </mxCell>
        <mxCell id="incXVMY_A2Ea36oLc7Ui-9" value="Read the oplog dump file" style="rounded=1;whiteSpace=wrap;html=1;" vertex="1" parent="1">
          <mxGeometry x="305" y="60" width="120" height="60" as="geometry" />
        </mxCell>
        <mxCell id="incXVMY_A2Ea36oLc7Ui-10" style="edgeStyle=orthogonalEdgeStyle;rounded=0;orthogonalLoop=1;jettySize=auto;html=1;exitX=0.5;exitY=1;exitDx=0;exitDy=0;" edge="1" parent="1" source="incXVMY_A2Ea36oLc7Ui-11" target="incXVMY_A2Ea36oLc7Ui-12">
          <mxGeometry relative="1" as="geometry" />
        </mxCell>
        <mxCell id="incXVMY_A2Ea36oLc7Ui-11" value="Filter data based on timestamp." style="rounded=1;whiteSpace=wrap;html=1;" vertex="1" parent="1">
          <mxGeometry x="305" y="180" width="120" height="60" as="geometry" />
        </mxCell>
        <mxCell id="incXVMY_A2Ea36oLc7Ui-12" value="Write the filtered data in another dump file." style="rounded=1;whiteSpace=wrap;html=1;" vertex="1" parent="1">
          <mxGeometry x="305" y="300" width="120" height="60" as="geometry" />
        </mxCell>
        <mxCell id="incXVMY_A2Ea36oLc7Ui-13" value="Dump Process" style="text;html=1;strokeColor=none;fillColor=none;align=center;verticalAlign=middle;whiteSpace=wrap;rounded=0;" vertex="1" parent="1">
          <mxGeometry x="120" y="20" width="60" height="30" as="geometry" />
        </mxCell>
        <mxCell id="incXVMY_A2Ea36oLc7Ui-14" value="Filtering" style="text;html=1;strokeColor=none;fillColor=none;align=center;verticalAlign=middle;whiteSpace=wrap;rounded=0;" vertex="1" parent="1">
          <mxGeometry x="330" y="20" width="60" height="30" as="geometry" />
        </mxCell>
        <mxCell id="incXVMY_A2Ea36oLc7Ui-15" style="edgeStyle=orthogonalEdgeStyle;rounded=0;orthogonalLoop=1;jettySize=auto;html=1;exitX=0.5;exitY=1;exitDx=0;exitDy=0;entryX=0.5;entryY=0;entryDx=0;entryDy=0;" edge="1" parent="1" source="incXVMY_A2Ea36oLc7Ui-16" target="incXVMY_A2Ea36oLc7Ui-18">
          <mxGeometry relative="1" as="geometry" />
        </mxCell>
        <mxCell id="incXVMY_A2Ea36oLc7Ui-16" value="Upload filtered data dump to GCS" style="rounded=1;whiteSpace=wrap;html=1;" vertex="1" parent="1">
          <mxGeometry x="510" y="60" width="120" height="60" as="geometry" />
        </mxCell>
        <mxCell id="incXVMY_A2Ea36oLc7Ui-17" style="edgeStyle=orthogonalEdgeStyle;rounded=0;orthogonalLoop=1;jettySize=auto;html=1;exitX=0.5;exitY=1;exitDx=0;exitDy=0;" edge="1" parent="1" source="incXVMY_A2Ea36oLc7Ui-18" target="incXVMY_A2Ea36oLc7Ui-19">
          <mxGeometry relative="1" as="geometry" />
        </mxCell>
        <mxCell id="incXVMY_A2Ea36oLc7Ui-18" value="Clean the oplog collection backup" style="rounded=1;whiteSpace=wrap;html=1;" vertex="1" parent="1">
          <mxGeometry x="510" y="180" width="120" height="60" as="geometry" />
        </mxCell>
        <mxCell id="incXVMY_A2Ea36oLc7Ui-19" value="Write the filtered data in another dump file." style="rounded=1;whiteSpace=wrap;html=1;" vertex="1" parent="1">
          <mxGeometry x="510" y="300" width="120" height="60" as="geometry" />
        </mxCell>
        <mxCell id="incXVMY_A2Ea36oLc7Ui-20" value="Upload to cloud" style="text;html=1;strokeColor=none;fillColor=none;align=center;verticalAlign=middle;whiteSpace=wrap;rounded=0;" vertex="1" parent="1">
          <mxGeometry x="540" y="20" width="60" height="30" as="geometry" />
        </mxCell>
      </root>
    </mxGraphModel>
  </diagram>
</mxfile>
